<svg xmlns="http://www.w3.org/2000/svg" width="200" height="200" viewBox="0 0 200 200">
    <!-- Fond -->
    <rect width="200" height="200" rx="15" fill="#2a7f6e"/>
    
    <!-- Feuille / Vert -->
    <path d="M100 30 Q130 60 140 100 Q150 140 100 170 Q50 140 60 100 Q70 60 100 30Z" fill="#c8963e" opacity="0.6"/>
    <path d="M100 50 Q120 80 125 110 Q130 140 100 155 Q70 140 75 110 Q80 80 100 50Z" fill="#c8963e" opacity="0.8"/>
    
    <!-- Soleil -->
    <circle cx="140" cy="50" r="20" fill="#e8d5a3" opacity="0.5"/>
    <circle cx="140" cy="50" r="12" fill="#e8d5a3"/>
    
    <!-- Rayons du soleil -->
    <line x1="140" y1="20" x2="140" y2="10" stroke="#e8d5a3" stroke-width="2"/>
    <line x1="140" y1="80" x2="140" y2="90" stroke="#e8d5a3" stroke-width="2"/>
    <line x1="110" y1="50" x2="100" y2="50" stroke="#e8d5a3" stroke-width="2"/>
    <line x1="170" y1="50" x2="180" y2="50" stroke="#e8d5a3" stroke-width="2"/>
    
    <!-- Texte -->
    <text x="100" y="170" font-family="Arial, sans-serif" font-size="11" fill="white" text-anchor="middle" font-weight="bold">GREEN ENERGY</text>
    <text x="100" y="187" font-family="Arial, sans-serif" font-size="8" fill="#1a3a5c" text-anchor="middle">CONGO</text>
</svg>